<?xml version="1.0" standalone="no"?>
<!DOCTYPE svg PUBLIC "-//W3C//DTD SVG 20010904//EN"
 "http://www.w3.org/TR/2001/REC-SVG-20010904/DTD/svg10.dtd">
<svg version="1.0" xmlns="http://www.w3.org/2000/svg"
 width="700.000000pt" height="700.000000pt" viewBox="0 0 700.000000 700.000000"
 preserveAspectRatio="xMidYMid meet">
<metadata>
Created by potrace 1.14, written by Peter Selinger 2001-2017
</metadata>
<g transform="translate(0.000000,700.000000) scale(0.100000,-0.100000)"
fill="#000000" stroke="none">
<path d="M1255 6993 c-138 -12 -350 -75 -485 -143 -386 -196 -644 -533 -742
-971 l-23 -104 0 -2275 0 -2275 23 -104 c128 -568 527 -968 1095 -1093 l102
-23 2275 0 2275 0 102 23 c566 125 970 529 1095 1095 l23 102 0 2275 0 2275
-23 102 c-125 566 -522 964 -1090 1095 l-97 22 -2245 2 c-1235 0 -2263 -1
-2285 -3z m530 -1448 c678 -79 1032 -346 1150 -870 25 -107 31 -442 11 -573
-87 -572 -499 -916 -1211 -1012 -44 -6 -293 -14 -552 -17 l-473 -6 0 -813 0
-814 -260 0 -260 0 0 2060 0 2060 733 0 c587 0 758 -3 862 -15z m3923 -18
c415 -77 676 -239 837 -522 176 -309 183 -841 15 -1175 -128 -255 -364 -446
-687 -556 -59 -21 -109 -38 -111 -40 -2 -1 231 -404 517 -894 287 -491 521
-894 521 -896 0 -2 -132 -4 -294 -4 l-295 0 -496 870 -496 870 -370 0 -369 0
0 -870 0 -870 -260 0 -260 0 0 2061 0 2060 803 -4 802 -4 143 -26z"/>
<path d="M710 4324 l0 -826 473 5 c497 5 523 7 705 57 223 61 396 201 478 385
53 121 68 214 68 410 -1 152 -4 193 -22 260 -77 283 -252 426 -608 495 -150
29 -355 40 -746 40 l-348 0 0 -826z"/>
<path d="M4480 4375 l0 -778 433 6 c333 4 456 9 536 22 377 60 605 237 688
535 25 93 26 396 0 489 -75 272 -270 415 -652 477 -77 12 -203 17 -552 21
l-453 5 0 -777z"/>
</g>
</svg>
